# xmcd
#
# Track frame offsets: 
#        150
#        27033
#        55263
#        97388
#        127017
#        156884
#        180220
#        207520
#        238773
#        261496
#        296420
#
# Disc length: 4440 seconds
#
# Revision: 2
# Processed by: cddbd v1.5.2PL0 Copyright (c) Steve Scherf et al.
# Submitted via: ExactAudioCopy v0.99pb4
#
DISCID=a211560b
DTITLE=Art Blakey and The Jazz Messengers - Buhaina's Delight
DYEAR=1961
DGENRE=Jazz
TTITLE0=Backstage Sally
TTITLE1=Contemplation
TTITLE2=Bu's Delight
TTITLE3=Reincarnation Blues
TTITLE4=Shaky Jake
TTITLE5=Moon River
TTITLE6=Backstage Sally (Alternate Version)
TTITLE7=Bu's Delight (Alternate Version)
TTITLE8=Reincarnation Blues (Alternate Version)
TTITLE9=Moon River (Alternate Take)
TTITLE10=data track
EXTD=YEAR: 2003
EXTT0=
EXTT1=
EXTT2=
EXTT3=
EXTT4=
EXTT5=
EXTT6=
EXTT7=
EXTT8=
EXTT9=
EXTT10=
PLAYORDER=
